<?xml version="1.0" encoding="UTF-8" standalone="no"?><!DOCTYPE svg PUBLIC "-//W3C//DTD SVG 1.1//EN" "http://www.w3.org/Graphics/SVG/1.1/DTD/svg11.dtd"><!-- Generated by graphviz version 2.40.1 (20161225.0304)
 --><!-- Title: G1 Pages: 1 --><svg xmlns="http://www.w3.org/2000/svg" xmlns:xlink="http://www.w3.org/1999/xlink" width="354pt" height="523pt" viewBox="0.00 0.00 354.06 522.60">
<g id="graph0" class="graph" transform="scale(1 1) rotate(0) translate(4 518.6)">
<title>G1</title>
<text text-anchor="middle" x="173.031" y="-492.6" font-family="Helvetica,Arial,sans-serif" font-size="20.00" fill="#000000">Workflow of converting R code chunk</text>
<!-- Sweave -->
<g id="node1" class="node">
<title>Sweave</title>
<polygon fill="#880000" fill-opacity="0.133333" stroke="transparent" points="274.8242,-458.6 75.8242,-458.6 75.8242,-347.6 274.8242,-347.6 274.8242,-458.6"/>
<polygon fill="none" stroke="#000000" stroke-opacity="0.266667" points="76.3242,-432.1 76.3242,-458.1 275.3242,-458.1 275.3242,-432.1 76.3242,-432.1"/>
<text text-anchor="start" x="81.3242" y="-441.5" font-family="Helvetica,Arial,sans-serif" font-weight="bold" font-size="14.00" fill="#000000">Sweave</text>
<polygon fill="none" stroke="#000000" stroke-opacity="0.266667" points="76.3242,-347.1 76.3242,-432.1 275.3242,-432.1 275.3242,-347.1 76.3242,-347.1"/>
<text text-anchor="start" x="81.3242" y="-419" font-family="Helvetica,Arial,sans-serif" font-size="9.00" fill="#000000">...</text>
<text text-anchor="start" x="81.3242" y="-408.2" font-family="Helvetica,Arial,sans-serif" font-size="9.00" fill="#000000">&lt;&lt;test, fig.cap="A fig o cars"&gt;&gt;=</text>
<text text-anchor="start" x="81.3242" y="-397.4" font-family="Helvetica,Arial,sans-serif" font-size="9.00" fill="#000000">cars &lt;- c(1, 3, 6, 4, 9)</text>
<text text-anchor="start" x="81.3242" y="-386.6" font-family="Helvetica,Arial,sans-serif" font-size="9.00" fill="#000000">plot(cars, type="o", col="blue")</text>
<text text-anchor="start" x="81.3242" y="-375.8" font-family="Helvetica,Arial,sans-serif" font-size="9.00" fill="#000000">title(main="Autos", col.main="red", font.main=4)</text>
<text text-anchor="start" x="81.3242" y="-365" font-family="Helvetica,Arial,sans-serif" font-size="9.00" fill="#000000">@</text>
<text text-anchor="start" x="81.3242" y="-354.2" font-family="Helvetica,Arial,sans-serif" font-size="9.00" fill="#000000">...</text>
</g>
<!-- code -->
<g id="node2" class="node">
<title>code</title>
<polygon fill="#880000" fill-opacity="0.133333" stroke="transparent" points="234.8242,-216 35.8242,-216 35.8242,-127 234.8242,-127 234.8242,-216"/>
<polygon fill="none" stroke="#000000" stroke-opacity="0.266667" points="36.3242,-189.5 36.3242,-215.5 235.3242,-215.5 235.3242,-189.5 36.3242,-189.5"/>
<text text-anchor="start" x="85.6419" y="-197.9" font-family="Helvetica,Arial,sans-serif" font-size="14.00" fill="#000000"> R code chunks </text>
<polygon fill="none" stroke="#000000" stroke-opacity="0.266667" points="36.3242,-126.5 36.3242,-189.5 235.3242,-189.5 235.3242,-126.5 36.3242,-126.5"/>
<text text-anchor="start" x="41.3242" y="-176.4" font-family="Helvetica,Arial,sans-serif" font-size="9.00" fill="#000000">```{r test, fig.cap="A fig o cars"}</text>
<text text-anchor="start" x="41.3242" y="-165.6" font-family="Helvetica,Arial,sans-serif" font-size="9.00" fill="#000000">cars &lt;- c(1, 3, 6, 4, 9)</text>
<text text-anchor="start" x="41.3242" y="-154.8" font-family="Helvetica,Arial,sans-serif" font-size="9.00" fill="#000000">plot(cars, type="o", col="blue")</text>
<text text-anchor="start" x="41.3242" y="-144" font-family="Helvetica,Arial,sans-serif" font-size="9.00" fill="#000000">title(main="Autos", col.main="red", font.main=4)</text>
<text text-anchor="start" x="41.3242" y="-133.2" font-family="Helvetica,Arial,sans-serif" font-size="9.00" fill="#000000">```</text>
</g>
<!-- Sweave&#45;&gt;code -->
<g id="edge1" class="edge">
<title>Sweave-&gt;code</title>
<path fill="none" stroke="#880000" stroke-opacity="0.533333" d="M165.6923,-347.3313C159.0823,-309.0591 150.3837,-258.6947 143.991,-221.6811"/>
<polygon fill="#880000" fill-opacity="0.533333" stroke="#880000" stroke-opacity="0.533333" points="145.6406,-220.9491 143.0651,-216.3199 142.1917,-221.5449 145.6406,-220.9491"/>
<text text-anchor="middle" x="109.6346" y="-283.8568" font-family="Helvetica,Arial,sans-serif" font-size="8.00" fill="#000000">sweave_code_reader.lua</text>
</g>
<!-- article -->
<g id="node3" class="node">
<title>article</title>
<polygon fill="#880000" fill-opacity="0.133333" stroke="transparent" points="290.8242,-302 199.8242,-302 199.8242,-234 290.8242,-234 290.8242,-302"/>
<polygon fill="none" stroke="#000000" stroke-opacity="0.266667" points="200.3242,-276 200.3242,-302 291.3242,-302 291.3242,-276 200.3242,-276"/>
<text text-anchor="start" x="223.2688" y="-284.4" font-family="Helvetica,Arial,sans-serif" font-size="14.00" fill="#000000"> article </text>
<polygon fill="none" stroke="#000000" stroke-opacity="0.266667" points="200.3242,-234 200.3242,-276 291.3242,-276 291.3242,-234 200.3242,-234"/>
<text text-anchor="start" x="205.3242" y="-262.9" font-family="Helvetica,Arial,sans-serif" font-size="9.00" fill="#000000">...</text>
<text text-anchor="start" x="205.3242" y="-252.1" font-family="Helvetica,Arial,sans-serif" font-size="9.00" fill="#000000">\Rcodeplaceholder{}</text>
<text text-anchor="start" x="205.3242" y="-241.3" font-family="Helvetica,Arial,sans-serif" font-size="9.00" fill="#000000">...</text>
</g>
<!-- Sweave&#45;&gt;article -->
<g id="edge2" class="edge">
<title>Sweave-&gt;article</title>
<path fill="none" stroke="#880000" stroke-opacity="0.533333" d="M204.2,-347.3697C211.2438,-333.7753 218.629,-319.5217 225.1664,-306.9045"/>
<polygon fill="#880000" fill-opacity="0.533333" stroke="#880000" stroke-opacity="0.533333" points="226.7879,-307.579 227.5344,-302.3344 223.6803,-305.9688 226.7879,-307.579"/>
<text text-anchor="middle" x="263.781" y="-322.4" font-family="Helvetica,Arial,sans-serif" font-size="8.00" fill="#000000">sweave_code_remove.lua</text>
</g>
<!-- RMarkdown -->
<g id="node5" class="node">
<title>RMarkdown</title>
<polygon fill="#d3d3d3" stroke="transparent" points="219.4896,-36 129.1588,-36 129.1588,0 219.4896,0 219.4896,-36"/>
<text text-anchor="middle" x="174.3242" y="-13.8" font-family="Helvetica,Arial,sans-serif" font-size="14.00" fill="#000000">RMarkdown</text>
</g>
<!-- code&#45;&gt;RMarkdown -->
<g id="edge4" class="edge">
<title>code-&gt;RMarkdown</title>
<path fill="none" stroke="#000000" d="M146.7095,-126.6888C153.8162,-98.7172 162.6733,-63.8569 168.4107,-41.275"/>
<polygon fill="#000000" stroke="#000000" points="170.1216,-41.6474 169.6568,-36.3704 166.7294,-40.7854 170.1216,-41.6474"/>
</g>
<!-- Markdown -->
<g id="node4" class="node">
<title>Markdown</title>
<polygon fill="#d3d3d3" stroke="transparent" points="284.3836,-109 204.2648,-109 204.2648,-73 284.3836,-73 284.3836,-109"/>
<text text-anchor="middle" x="244.3242" y="-86.8" font-family="Helvetica,Arial,sans-serif" font-size="14.00" fill="#000000">Markdown</text>
</g>
<!-- article&#45;&gt;Markdown -->
<g id="edge3" class="edge">
<title>article-&gt;Markdown</title>
<path fill="none" stroke="#880000" stroke-opacity="0.533333" d="M245.1314,-233.8726C244.9329,-198.7361 244.6289,-144.9306 244.4562,-114.3603"/>
<polygon fill="#880000" fill-opacity="0.533333" stroke="#880000" stroke-opacity="0.533333" points="246.2059,-114.2861 244.4276,-109.2961 242.7059,-114.306 246.2059,-114.2861"/>
<text text-anchor="start" x="245.3242" y="-170.1" font-family="Helvetica,Arial,sans-serif" font-weight="bold" font-size="8.00" fill="#000000">pandoc</text>
</g>
<!-- Markdown&#45;&gt;RMarkdown -->
<g id="edge5" class="edge">
<title>Markdown-&gt;RMarkdown</title>
<path fill="none" stroke="#000000" d="M227.0208,-72.9551C217.4294,-62.9525 205.4317,-50.4407 195.3081,-39.8833"/>
<polygon fill="#000000" stroke="#000000" points="196.3949,-38.4881 191.6711,-36.0904 193.8686,-40.9105 196.3949,-38.4881"/>
</g>
</g>
</svg>