<?xml version="1.0" encoding="UTF-8" standalone="no"?><!DOCTYPE svg PUBLIC "-//W3C//DTD SVG 1.1//EN" "http://www.w3.org/Graphics/SVG/1.1/DTD/svg11.dtd"><!-- Generated by graphviz version 2.40.1 (20161225.0304)
 --><!-- Title: G1 Pages: 1 --><svg xmlns="http://www.w3.org/2000/svg" xmlns:xlink="http://www.w3.org/1999/xlink" width="354pt" height="498pt" viewBox="0.00 0.00 354.06 497.80">
<g id="graph0" class="graph" transform="scale(1 1) rotate(0) translate(4 493.8)">
<title>G1</title>
<text text-anchor="middle" x="173.031" y="-467.8" font-family="Helvetica,Arial,sans-serif" font-size="20.00" fill="#000000">Workflow of converting R code chunk</text>
<!-- Sweave -->
<g id="node1" class="node">
<title>Sweave</title>
<polygon fill="#880000" fill-opacity="0.133333" stroke="transparent" points="282.031,-457.8 83.031,-457.8 83.031,-346.8 282.031,-346.8 282.031,-457.8"/>
<polygon fill="none" stroke="#000000" stroke-opacity="0.266667" points="83.531,-431.3 83.531,-457.3 282.531,-457.3 282.531,-431.3 83.531,-431.3"/>
<text text-anchor="start" x="88.531" y="-440.7" font-family="Helvetica,Arial,sans-serif" font-weight="bold" font-size="14.00" fill="#000000">Sweave</text>
<polygon fill="none" stroke="#000000" stroke-opacity="0.266667" points="83.531,-346.3 83.531,-431.3 282.531,-431.3 282.531,-346.3 83.531,-346.3"/>
<text text-anchor="start" x="88.531" y="-418.2" font-family="Helvetica,Arial,sans-serif" font-size="9.00" fill="#000000">...</text>
<text text-anchor="start" x="88.531" y="-407.4" font-family="Helvetica,Arial,sans-serif" font-size="9.00" fill="#000000">&lt;&lt;test, fig.cap="A fig o cars"&gt;&gt;=</text>
<text text-anchor="start" x="88.531" y="-396.6" font-family="Helvetica,Arial,sans-serif" font-size="9.00" fill="#000000">cars &lt;- c(1, 3, 6, 4, 9)</text>
<text text-anchor="start" x="88.531" y="-385.8" font-family="Helvetica,Arial,sans-serif" font-size="9.00" fill="#000000">plot(cars, type="o", col="blue")</text>
<text text-anchor="start" x="88.531" y="-375" font-family="Helvetica,Arial,sans-serif" font-size="9.00" fill="#000000">title(main="Autos", col.main="red", font.main=4)</text>
<text text-anchor="start" x="88.531" y="-364.2" font-family="Helvetica,Arial,sans-serif" font-size="9.00" fill="#000000">@</text>
<text text-anchor="start" x="88.531" y="-353.4" font-family="Helvetica,Arial,sans-serif" font-size="9.00" fill="#000000">...</text>
</g>
<!-- code -->
<g id="node2" class="node">
<title>code</title>
<polygon fill="#880000" fill-opacity="0.133333" stroke="transparent" points="201.031,-321.2 2.031,-321.2 2.031,-232.2 201.031,-232.2 201.031,-321.2"/>
<polygon fill="none" stroke="#000000" stroke-opacity="0.266667" points="2.531,-294.7 2.531,-320.7 201.531,-320.7 201.531,-294.7 2.531,-294.7"/>
<text text-anchor="start" x="51.8487" y="-303.1" font-family="Helvetica,Arial,sans-serif" font-size="14.00" fill="#000000"> R code chunks </text>
<polygon fill="none" stroke="#000000" stroke-opacity="0.266667" points="2.531,-231.7 2.531,-294.7 201.531,-294.7 201.531,-231.7 2.531,-231.7"/>
<text text-anchor="start" x="7.531" y="-281.6" font-family="Helvetica,Arial,sans-serif" font-size="9.00" fill="#000000">```{r test, fig.cap="A fig o cars"}</text>
<text text-anchor="start" x="7.531" y="-270.8" font-family="Helvetica,Arial,sans-serif" font-size="9.00" fill="#000000">cars &lt;- c(1, 3, 6, 4, 9)</text>
<text text-anchor="start" x="7.531" y="-260" font-family="Helvetica,Arial,sans-serif" font-size="9.00" fill="#000000">plot(cars, type="o", col="blue")</text>
<text text-anchor="start" x="7.531" y="-249.2" font-family="Helvetica,Arial,sans-serif" font-size="9.00" fill="#000000">title(main="Autos", col.main="red", font.main=4)</text>
<text text-anchor="start" x="7.531" y="-238.4" font-family="Helvetica,Arial,sans-serif" font-size="9.00" fill="#000000">```</text>
</g>
<!-- Sweave&#45;&gt;code -->
<g id="edge2" class="edge">
<title>Sweave-&gt;code</title>
<path fill="none" stroke="#fceea1" d="M146.5315,-346.4786C142.0528,-339.5338 137.4997,-332.4737 133.0951,-325.6438"/>
<polygon fill="#fceea1" stroke="#fceea1" points="134.5543,-324.6775 130.3737,-321.424 131.6129,-326.5745 134.5543,-324.6775"/>
<text text-anchor="middle" x="93.8414" y="-336.4585" font-family="Helvetica,Arial,sans-serif" font-size="8.00" fill="#000000">sweave_code_reader.lua</text>
</g>
<!-- article -->
<g id="node3" class="node">
<title>article</title>
<polygon fill="#880000" fill-opacity="0.133333" stroke="transparent" points="310.031,-310.7 219.031,-310.7 219.031,-242.7 310.031,-242.7 310.031,-310.7"/>
<polygon fill="none" stroke="#000000" stroke-opacity="0.266667" points="219.531,-284.7 219.531,-310.7 310.531,-310.7 310.531,-284.7 219.531,-284.7"/>
<text text-anchor="start" x="242.4756" y="-293.1" font-family="Helvetica,Arial,sans-serif" font-size="14.00" fill="#000000"> article </text>
<polygon fill="none" stroke="#000000" stroke-opacity="0.266667" points="219.531,-242.7 219.531,-284.7 310.531,-284.7 310.531,-242.7 219.531,-242.7"/>
<text text-anchor="start" x="224.531" y="-271.6" font-family="Helvetica,Arial,sans-serif" font-size="9.00" fill="#000000">...</text>
<text text-anchor="start" x="224.531" y="-260.8" font-family="Helvetica,Arial,sans-serif" font-size="9.00" fill="#000000">\Rcodeplaceholder{}</text>
<text text-anchor="start" x="224.531" y="-250" font-family="Helvetica,Arial,sans-serif" font-size="9.00" fill="#000000">...</text>
</g>
<!-- Sweave&#45;&gt;article -->
<g id="edge1" class="edge">
<title>Sweave-&gt;article</title>
<path fill="none" stroke="#880000" stroke-opacity="0.533333" d="M218.9749,-346.4786C225.9364,-335.8157 233.0752,-324.8811 239.5753,-314.9249"/>
<polygon fill="#880000" fill-opacity="0.533333" stroke="#880000" stroke-opacity="0.533333" points="241.0514,-315.8649 242.3195,-310.7215 238.1207,-313.9516 241.0514,-315.8649"/>
<text text-anchor="middle" x="274.9878" y="-331.6" font-family="Helvetica,Arial,sans-serif" font-size="8.00" fill="#000000">sweave_code_remove.lua</text>
</g>
<!-- mergepoint -->
<g id="node6" class="node">
<title>mergepoint</title>
<polygon fill="#a9e5b0" stroke="#a9e5b0" points="135.531,-121.6 132.031,-118.1 135.531,-114.6 139.031,-118.1 135.531,-121.6"/>
</g>
<!-- code&#45;&gt;mergepoint -->
<g id="edge4" class="edge">
<title>code-&gt;mergepoint</title>
<path fill="none" stroke="#a9e5b0" d="M111.0924,-232.099C119.0324,-195.0612 129.6691,-145.444 133.7944,-126.2005"/>
<polygon fill="#a9e5b0" stroke="#a9e5b0" points="135.5564,-126.3301 134.8934,-121.0744 132.1341,-125.5964 135.5564,-126.3301"/>
</g>
<!-- Markdown -->
<g id="node4" class="node">
<title>Markdown</title>
<polygon fill="#880000" fill-opacity="0.133333" stroke="transparent" points="344.031,-206.6 163.031,-206.6 163.031,-138.6 344.031,-138.6 344.031,-206.6"/>
<polygon fill="none" stroke="#000000" stroke-opacity="0.266667" points="163.531,-180.6 163.531,-206.6 344.531,-206.6 344.531,-180.6 163.531,-180.6"/>
<text text-anchor="start" x="217.8613" y="-189" font-family="Helvetica,Arial,sans-serif" font-size="14.00" fill="#000000"> Markdown </text>
<polygon fill="none" stroke="#000000" stroke-opacity="0.266667" points="163.531,-138.6 163.531,-180.6 344.531,-180.6 344.531,-138.6 163.531,-138.6"/>
<text text-anchor="start" x="168.531" y="-167.5" font-family="Helvetica,Arial,sans-serif" font-size="9.00" fill="#000000">...</text>
<text text-anchor="start" x="168.531" y="-156.7" font-family="Helvetica,Arial,sans-serif" font-size="9.00" fill="#000000">&lt;!--R_CODE_CHUNK_PLACEHOLDER--&gt;</text>
<text text-anchor="start" x="168.531" y="-145.9" font-family="Helvetica,Arial,sans-serif" font-size="9.00" fill="#000000">...</text>
</g>
<!-- article&#45;&gt;Markdown -->
<g id="edge3" class="edge">
<title>article-&gt;Markdown</title>
<path fill="none" stroke="#880000" stroke-opacity="0.533333" d="M260.9292,-242.6138C259.8941,-232.8178 258.7567,-222.0541 257.6908,-211.9672"/>
<polygon fill="#880000" fill-opacity="0.533333" stroke="#880000" stroke-opacity="0.533333" points="259.4067,-211.5512 257.1409,-206.7628 255.9261,-211.9191 259.4067,-211.5512"/>
<text text-anchor="start" x="258.531" y="-217" font-family="Helvetica,Arial,sans-serif" font-size="8.00" fill="#000000">pandoc</text>
</g>
<!-- Markdown&#45;&gt;mergepoint -->
<g id="edge5" class="edge">
<title>Markdown-&gt;mergepoint</title>
<path fill="none" stroke="#a9e5b0" d="M179.8056,-138.5488C164.6649,-131.5559 150.9063,-125.2013 142.8758,-121.4923"/>
<polygon fill="#a9e5b0" stroke="#a9e5b0" points="143.5579,-119.8797 138.2848,-119.3719 142.0903,-123.0572 143.5579,-119.8797"/>
</g>
<!-- RMarkdown -->
<g id="node5" class="node">
<title>RMarkdown</title>
<polygon fill="#880000" fill-opacity="0.133333" stroke="transparent" points="235.031,-89 36.031,-89 36.031,0 235.031,0 235.031,-89"/>
<polygon fill="none" stroke="#000000" stroke-opacity="0.266667" points="36.531,-62.5 36.531,-88.5 235.531,-88.5 235.531,-62.5 36.531,-62.5"/>
<text text-anchor="start" x="92.8627" y="-70.9" font-family="Helvetica,Arial,sans-serif" font-size="14.00" fill="#000000"> R Markdown </text>
<polygon fill="none" stroke="#000000" stroke-opacity="0.266667" points="36.531,.5 36.531,-62.5 235.531,-62.5 235.531,.5 36.531,.5"/>
<text text-anchor="start" x="41.531" y="-49.4" font-family="Helvetica,Arial,sans-serif" font-size="9.00" fill="#000000">```{r test, fig.cap="A fig o cars"}</text>
<text text-anchor="start" x="41.531" y="-38.6" font-family="Helvetica,Arial,sans-serif" font-size="9.00" fill="#000000">cars &lt;- c(1, 3, 6, 4, 9)</text>
<text text-anchor="start" x="41.531" y="-27.8" font-family="Helvetica,Arial,sans-serif" font-size="9.00" fill="#000000">plot(cars, type="o", col="blue")</text>
<text text-anchor="start" x="41.531" y="-17" font-family="Helvetica,Arial,sans-serif" font-size="9.00" fill="#000000">title(main="Autos", col.main="red", font.main=4)</text>
<text text-anchor="start" x="41.531" y="-6.2" font-family="Helvetica,Arial,sans-serif" font-size="9.00" fill="#000000">```</text>
</g>
<!-- mergepoint&#45;&gt;RMarkdown -->
<g id="edge6" class="edge">
<title>mergepoint-&gt;RMarkdown</title>
<path fill="none" stroke="#a9e5b0" d="M135.531,-114.5501C135.531,-110.4125 135.531,-103.0556 135.531,-94.619"/>
<polygon fill="#a9e5b0" stroke="#a9e5b0" points="137.2811,-94.2456 135.531,-89.2457 133.7811,-94.2457 137.2811,-94.2456"/>
<text text-anchor="start" x="135.531" y="-100.4" font-family="Helvetica,Arial,sans-serif" font-weight="bold" font-size="8.00" fill="#000000">Merge</text>
</g>
</g>
</svg>